# xmcd
# 
# Track frame offsets:
#     150
#     10175
#     18423
#     26965
#     35792
#     45086
#     54027
#     66833
#     76887
#     90407
#     103550
#     114899
#     127874
#     143842
#     156709
#     168691
#     179341
#     193580
#     204693
#     215410
#     225112
#     235683
#     246722
#     260552
#     271759
# 
# Disc length: 3842
# 
# Revision: 4
# Processed by: cddbd v1.5.2PL0 Copyright (c) Steve Scherf et al.
# Submitted via: fre:ac v1.0.31
# 
DISCID=4e0f0019
DTITLE=Johnny Cash - Bootleg Vol. 2  From Memphis To Hollywood The 1960s Disc 2
DYEAR=2011
DGENRE=Country
TTITLE0=All Over Again [8/8/58]
TTITLE1=You Dreamer You [3/12/59]
TTITLE2=I'll Remember You [8/14/59]
TTITLE3=Johnny Yuma Theme [12/14/59]
TTITLE4=Five Minutes to Live [11/2/60]
TTITLE5=The Losing Kind [5/9/60]
TTITLE6=Locomotive Man [11/26/60]
TTITLE7=Girl in Saskatoon [11/26/60]
TTITLE8=There's a Mother Always Waiting [4/28/61]
TTITLE9=Johnny Reb [3/19/62]
TTITLE10=Shifting, Whispering Sands [4/18/62]
TTITLE11=Send a Picture of Mother [8/21/62]
TTITLE12=Hardin Wouldn't Run [demo 3/12/65]
TTITLE13=Thunderball [5/12/65]
TTITLE14=One Too Many Mornings [10/29/65]
TTITLE15=The Frozen Logger [1/11/66]
TTITLE16=Foolish Questions [1/12/66]
TTITLE17=Bottom of the Mountain [7/6/66]
TTITLE18=Put the Sugar to Bed [11/1/66]
TTITLE19=You Beat All I Ever Saw [11/1/66]
TTITLE20=On the Line [1/12/67]
TTITLE21=Roll Call [10/3/67]
TTITLE22=The Folk Singer [3/6/68]
TTITLE23=Six White Horses [demo 7/24/69]
TTITLE24=Come Along and Ride This Train [demo 1969]
EXTD=
EXTT0=
EXTT1=
EXTT2=
EXTT3=
EXTT4=
EXTT5=
EXTT6=
EXTT7=
EXTT8=
EXTT9=
EXTT10=
EXTT11=
EXTT12=
EXTT13=
EXTT14=
EXTT15=
EXTT16=
EXTT17=
EXTT18=
EXTT19=
EXTT20=
EXTT21=
EXTT22=
EXTT23=
EXTT24=
PLAYORDER=
